# xmcd
#
# Track frame offsets:
#	150
#	20272
#	36664
#	56912
#	72008
#	92075
#	112080
#	130503
#	144939
#	161325
#	186656
#	200404
#	223047
#	249606
#
# Disc length: 3562 seconds
#
# Revision: 1
# Processed by: cddbd v1.5.2PL0 Copyright (c) Steve Scherf et al.
# Submitted via: EZCDAudioConverter 8.0.2.1
#
DISCID=d00de80e
DTITLE=Various Artist - Em Còn Nhớ Mùa Xuân
DYEAR=2011
DGENRE=Contemporary Pop
TTITLE0=Trish Thùy Trang - Xuân đã về
TTITLE1=Đoàn Phi - Hoa cỏ mùa xuân
TTITLE2=Lâm Thúy Vân - Mùa xuân trong đôi mắt em
TTITLE3=Thiên Kim - Mừng nắng xuân về
TTITLE4=Lê Anh Quân - Nắng xuân
TTITLE5=Hồ Hoàng Yến - Anh cho em mùa xuân
TTITLE6=Y Phương - Em còn nhớ mùa xuân
TTITLE7=Ánh Minh - Khúc nhạc mừng xuân
TTITLE8=Kristine Sa - Thì thầm mùa xuân
TTITLE9=Nguyễn Hồng Nhung - Hoa xuân
TTITLE10=Quốc Khanh, Hà Thanh Xuân - Thiên duyên tiền định
TTITLE11=Diễm Liên - Xuân và tuổi trẻ
TTITLE12=Lâm Nhật Tiến - Đưa em tìm động hoa vàng
TTITLE13=Mai Thanh Sơn - Lạc mất mùa xuân
EXTD=
EXTT0=
EXTT1=
EXTT2=
EXTT3=
EXTT4=
EXTT5=
EXTT6=
EXTT7=
EXTT8=
EXTT9=
EXTT10=
EXTT11=
EXTT12=
EXTT13=
PLAYORDER=
